<?xml version="1.0" encoding="UTF-8"?>
<svg id="_レイヤー_1" data-name="レイヤー 1" xmlns="http://www.w3.org/2000/svg" viewBox="0 0 1973.35 494.09">
  <defs>
    <style>
      .cls-1 {
        fill: #258faf;
      }
    </style>
  </defs>
  <g>
    <path class="cls-1" d="M617.23,149.1l48.1,149.7,48.09-149.7h35.9l48.09,149.7,48.1-149.7h54.19l-76.89,225.91h-44.03l-47.42-137.17-47.42,137.17h-44.03l-76.89-225.91h54.19Z"/>
    <path class="cls-1" d="M1036.27,354.74c-13.55,14.23-36.58,25.61-66.05,25.61s-52.5-11.38-66.05-25.61c-15.24-16-22.69-38.76-22.69-59.04s7.45-43.03,22.69-59.04c13.55-14.23,36.58-25.6,66.05-25.6s52.5,11.38,66.05,25.6c15.24,16,22.69,38.77,22.69,59.04s-7.45,43.03-22.69,59.04ZM942.78,265.83c-7.11,7.47-11.18,17.07-11.18,29.87,0,14.58,5.42,23.83,11.18,29.87,6.1,6.4,14.9,11.38,27.77,11.38,10.84,0,19.98-3.91,27.1-11.38,7.11-7.47,11.18-17.07,11.18-29.87s-4.06-22.41-11.18-29.87c-7.11-7.47-16.26-11.38-27.43-11.38s-20.32,3.91-27.43,11.38Z"/>
    <path class="cls-1" d="M1076.54,223.96h48.77v23.71c4.4-8.47,11.18-16.26,18.97-21,8.13-5.08,16.6-6.43,26.08-6.43,6.1,0,10.5.68,15.92,2.37l-2.71,45.72c-6.44-3.39-13.55-5.42-22.02-5.42-10.5,0-18.29,3.73-24.39,10.16-10.84,11.52-11.85,27.77-11.85,40.64v61.3h-48.77v-151.06Z"/>
    <path class="cls-1" d="M1363.31,375.02h-48.77v-18.29c-7.45,10.84-21,23.37-47.76,23.37-22.35,0-38.61-7.11-51.82-20.66-15.58-15.58-23.71-37.26-23.71-60.63,0-25.06,9.15-45.72,23.71-59.61,13.21-12.53,31.84-20.32,52.5-20.32,16.6,0,34.89,5.42,47.08,22.01v-112.79h48.77v246.91ZM1253.23,271.03c-7.11,6.77-11.85,16.6-11.85,28.79,0,11.18,4.74,21,11.85,27.77,7.45,7.11,16.94,10.5,25.4,10.5,9.15,0,19.98-3.73,27.77-11.18,5.76-5.42,11.18-14.56,11.18-27.09s-5.08-21.68-10.84-27.77c-7.79-8.13-16.94-11.18-27.43-11.18-9.82,0-18.29,2.71-26.08,10.16Z"/>
    <path class="cls-1" d="M1450.86,128.1v246.91h-48.77v-246.91h48.77Z"/>
    <path class="cls-1" d="M1621.86,356.07c-12.66,13.3-34.19,23.93-61.74,23.93s-49.08-10.64-61.74-23.93c-14.25-14.96-21.21-36.24-21.21-55.19s6.97-40.22,21.21-55.18c12.66-13.3,34.19-23.94,61.74-23.94s49.08,10.64,61.74,23.94c14.25,14.96,21.22,36.24,21.22,55.18s-6.97,40.22-21.22,55.19ZM1534.47,272.96c-6.65,6.98-10.45,15.96-10.45,27.92,0,13.63,5.06,22.27,10.45,27.93,5.7,5.98,13.93,10.64,25.96,10.64,10.13,0,18.68-3.66,25.33-10.64,6.65-6.98,10.45-15.96,10.45-27.93s-3.8-20.94-10.45-27.92c-6.65-6.98-15.2-10.64-25.65-10.64s-19,3.66-25.65,10.64Z"/>
    <path class="cls-1" d="M1756.74,356.07c-12.66,13.3-34.19,23.93-61.74,23.93s-49.08-10.64-61.74-23.93c-14.25-14.96-21.21-36.24-21.21-55.19s6.97-40.22,21.21-55.18c12.66-13.3,34.19-23.94,61.74-23.94s49.08,10.64,61.74,23.94c14.25,14.96,21.22,36.24,21.22,55.18s-6.97,40.22-21.22,55.19ZM1669.35,272.96c-6.65,6.98-10.45,15.96-10.45,27.92,0,13.63,5.06,22.27,10.45,27.93,5.7,5.98,13.93,10.64,25.96,10.64,10.13,0,18.68-3.66,25.33-10.64,6.65-6.98,10.45-15.96,10.45-27.93s-3.8-20.94-10.45-27.92c-6.65-6.98-15.2-10.64-25.65-10.64s-19,3.66-25.65,10.64Z"/>
    <path class="cls-1" d="M1850.06,452.58h-48.77v-228.62h48.77v17.95c15.92-20.66,35.56-23.03,47.08-23.03,27.1,0,44.03,11.85,53.52,21.34,13.55,13.55,22.69,34.21,22.69,58.93,0,26.08-9.14,45.72-24.05,60.63-14.9,14.9-31.16,20.32-51.14,20.32-30.14,0-43.01-15.24-48.1-22.35v94.83ZM1858.19,272.05c-7.79,7.79-11.52,18.63-11.52,27.77s3.73,19.31,10.84,26.76c7.11,7.11,17.27,11.51,27.77,11.51,9.15,0,18.97-3.73,26.08-10.5,7.79-7.45,11.85-18.97,11.85-28.79,0-11.18-4.74-21-11.51-27.43-7.11-6.77-16.6-10.5-26.42-10.5-13.55,0-22.35,6.43-27.09,11.18Z"/>
  </g>
  <g>
    <path class="cls-1" d="M236.08,69.85c.33,4.49,4.28,8.05,9.11,8.05s9.15-3.87,9.15-8.65c0-.39-.04-.76-.09-1.13h.01c-.13-1.7.25-6.77,3.15-9.9,2.26-2.43,6.08-3.67,11.37-3.67s9.08,1.27,11.5,3.79c3.82,3.97,3.77,10.36,3.76,10.94-.02.22-.01.29-.01.53,0,3.57-.71,7.78-9.28,12.51-14.2,7.84-14.45,21.52-14.58,28.88-.02,1.14.18,2.24.54,3.25l-14.83,7.99c-2.34.96-4.01,3.26-4.01,5.93v24.42c-.01,2.02-.01,4.07,0,6.11v30.71c0,3.52,2.88,6.41,6.41,6.41h42.52c3.52,0,6.41-2.88,6.41-6.41v-61.24c0-2.95-2.03-5.45-4.76-6.18l-12.88-6.94c-.52-.45-.99-.92-1.38-1.41.21-.74.33-1.51.35-2.31.13-7.41.63-10.67,5.09-13.13,12.58-6.94,18.72-16.23,18.78-28.39.1-2.55.09-14.88-8.66-24.18-4.14-4.4-11.83-9.65-24.95-9.65s-21.01,5.31-25.05,9.77c-8.8,9.71-7.82,22.48-7.68,23.9h.03ZM271.18,132.75c-2.89.99-6.05-.55-7.04-3.44-.99-2.89.55-6.05,3.44-7.04,2.89-.99,6.05.55,7.04,3.44.99,2.89-.55,6.05-3.44,7.04Z"/>
    <path class="cls-1" d="M502.39,198.46c-22.9-22.71-53.54-35.61-86.26-36.34-94.79-2.13-158.88,109.6-161.56,114.36-.55.98-55.71,97.32-129.68,97.31-.63,0-1.27,0-1.9-.02-50.14-1.12-89.42-40.24-89.42-89.05s39.28-87.93,89.42-89.05c49.95-1.11,91.75,42.44,114.09,71.64l19.69-29.33c-27.72-33.75-75.08-77.18-134.53-75.86-32.72.73-63.36,13.64-86.26,36.34C12.77,221.45,0,252.08,0,284.71s12.77,63.26,35.97,86.25c22.9,22.7,53.54,35.61,86.26,36.34.9.02,1.77.03,2.67.03,93.32-.01,156.24-109.68,158.89-114.37.56-.98,56-97.33,129.7-97.33.63,0,1.26,0,1.89.02,50.14,1.12,89.42,40.24,89.42,89.05s-39.28,87.93-89.42,89.05c-50.45,1.11-92.56-43.29-114.73-72.48l-19.72,29.36c27.22,33.36,73.86,76.7,132.53,76.7.89,0,1.77-.01,2.67-.03,32.72-.73,63.36-13.64,86.26-36.34,23.19-22.99,35.97-53.63,35.97-86.25s-12.77-63.26-35.97-86.25Z"/>
  </g>
</svg>
